# xmcd
#
# Track frame offsets: 
#        150
#        12610
#        24083
#        35644
#        48105
#        59172
#        73429
#        82949
#        98272
#        110511
#        122381
#        137981
#        147604
#        160962
#        174176
#
# Disc length: 2480 seconds
#
# Revision: 0
# Processed by: cddbd v1.5.2PL0 Copyright (c) Steve Scherf et al.
# Submitted via: ExactAudioCopy v1.3
#
DISCID=cb09ae0f
DTITLE=Various Artist - The Great Country Love Songs Vol 1
DYEAR=1900
DGENRE=Country
TTITLE0=Charlie Rich - Behind Closed Doors
TTITLE1=Sammi Smith - Help Me Make It Through The Night
TTITLE2=Patsy Cline - Walking After Midnight
TTITLE3=Wanda Jackson - Crazy
TTITLE4=Don Gibson - Oh, Lonesome Me
TTITLE5=BJ Thomas - I'm So Lonesome I Could Cry
TTITLE6=Charley Pride - Kiss An Angle Good Morning
TTITLE7=Margo Smith - You Light Up My Life
TTITLE8=Sandy Posey - Single Girl
TTITLE9=Skeeter Davis - The End Of The World
TTITLE10=Cal Smith - Country Bumpkin
TTITLE11=Johnny Cash - Ballad Of A Teenage Queen
TTITLE12=Lee Greenwood - Amazing Grace
TTITLE13=Lynn Anderson - Rose Garden
TTITLE14=Freddy Fender - Softly And Tenderly
EXTD=
EXTT0=
EXTT1=
EXTT2=
EXTT3=
EXTT4=
EXTT5=
EXTT6=
EXTT7=
EXTT8=
EXTT9=
EXTT10=
EXTT11=
EXTT12=
EXTT13=
EXTT14=
PLAYORDER=
